/* XPM */
static char *result[] = {
/* columns rows colors chars-per-pixel */
"30 30 213 2 ",
"   c #7C1509",
".  c #7D160B",
"X  c #5E381C",
"o  c #8B0A04",
"O  c #850D09",
"+  c #8C0C09",
"@  c #890806",
"#  c #9D0505",
"$  c #9D0C05",
"%  c #9B060B",
"&  c #930D0A",
"*  c #9C0C0B",
"=  c #950707",
"-  c #8E1407",
";  c #821409",
":  c #8B1309",
">  c #8B1F0C",
",  c #871B08",
"<  c #931506",
"1  c #94120B",
"2  c #921C0B",
"3  c #981708",
"4  c #8C0F12",
"5  c #990A11",
"6  c #950D12",
"7  c #8C1B16",
"8  c #8D1E1D",
"9  c #881711",
"0  c #921713",
"q  c #9A1216",
"w  c #921E1A",
"e  c #9A1A1C",
"r  c #971B16",
"t  c #A3050B",
"y  c #AC060A",
"u  c #A50B0D",
"i  c #A70A09",
"p  c #BC060A",
"a  c #BE0A09",
"s  c #B50708",
"d  c #A6100C",
"f  c #AA1B06",
"g  c #B71A05",
"h  c #A20B14",
"j  c #AA0C16",
"k  c #B20914",
"l  c #BC0C15",
"z  c #A51510",
"x  c #A7171C",
"c  c #B7161C",
"v  c #88250E",
"b  c #9F210B",
"n  c #8A2316",
"m  c #892315",
"M  c #94241C",
"N  c #A41C22",
"B  c #AB1D25",
"V  c #BB1420",
"C  c #B41C23",
"Z  c #9C2426",
"A  c #9C262A",
"S  c #9C2B28",
"D  c #962625",
"F  c #99302D",
"G  c #9D2B31",
"H  c #A32323",
"J  c #A32429",
"K  c #AA2329",
"L  c #A72F2E",
"P  c #AA2A2B",
"I  c #AE2525",
"U  c #BD242A",
"Y  c #B42B2B",
"T  c #BC2C2D",
"R  c #B82625",
"E  c #B8332E",
"W  c #A52C30",
"Q  c #AA2A31",
"!  c #B82D33",
"~  c #A33133",
"^  c #A83135",
"/  c #BD3B34",
"(  c #BC3D3A",
")  c #BA3531",
"_  c #C3050A",
"`  c #C00D0F",
"'  c #C11307",
"]  c #C60A13",
"[  c #C90D1A",
"{  c #CD0914",
"}  c #D20F15",
"|  c #CD171D",
" . c #D31219",
".. c #C82B0B",
"X. c #D51B26",
"o. c #C71325",
"O. c #C3252A",
"+. c #C2282A",
"@. c #C7282A",
"#. c #D42B2C",
"$. c #C5332F",
"%. c #DC2F34",
"&. c #C73D3D",
"*. c #C53A35",
"=. c #D43738",
"-. c #F52F31",
";. c #EF3733",
":. c #F33233",
">. c #E7272A",
",. c #924727",
"<. c #BB403A",
"1. c #C2433B",
"2. c #E43644",
"3. c #AE4B4B",
"4. c #BB4B4A",
"5. c #BA4542",
"6. c #B2514F",
"7. c #BA4B50",
"8. c #BC5D5C",
"9. c #BD5150",
"0. c #BD5D60",
"q. c #BC7072",
"w. c #C14540",
"e. c #C44C44",
"r. c #C84F48",
"t. c #C5514B",
"y. c #D54C57",
"u. c #C65A56",
"i. c #CA5956",
"p. c #D55758",
"a. c #D94846",
"s. c #F84241",
"d. c #F85747",
"f. c #EC4F53",
"g. c #E45353",
"h. c #E95954",
"j. c #E44446",
"k. c #FC6848",
"l. c #FA754B",
"z. c #E05B64",
"x. c #C46067",
"c. c #CA6468",
"v. c #D06C6F",
"b. c #CC6E72",
"n. c #D17875",
"m. c #EC6664",
"M. c #EA626A",
"N. c #F1686C",
"B. c #EF7569",
"V. c #F6736A",
"C. c #F36E70",
"Z. c #F57C75",
"A. c #F77876",
"S. c #3D8922",
"D. c #448D26",
"F. c #488F2C",
"G. c #4C932A",
"H. c #52992E",
"J. c #4E9430",
"K. c #559D37",
"L. c #559F3D",
"P. c #518D45",
"I. c #629E45",
"U. c #5FAB46",
"Y. c #66AA48",
"T. c #6AB34F",
"R. c #79AF5D",
"E. c #6CB351",
"W. c #69B358",
"Q. c #72B85D",
"!. c #8BBB76",
"~. c #9BB677",
"^. c #DF867D",
"/. c #FB9D73",
"(. c #FA877C",
"). c #FBA86D",
"_. c #351CDC",
"`. c #0101FE",
"'. c #0C0CFE",
"]. c #1212FE",
"[. c #1B1BFE",
"{. c #1815F8",
"}. c #1D0CE4",
"|. c #2B1DEE",
" X c #231FF9",
".X c #2424FD",
"XX c #2929FE",
"oX c #2F28F4",
"OX c #3131FE",
"+X c #5758FB",
"@X c #D38D8E",
"#X c #FA8984",
"$X c #FB8987",
"%X c #FA958B",
"&X c #FB9284",
"*X c #E99798",
"=X c #FD9C94",
"-X c #EB878D",
";X c #FCA38B",
":X c #FDAC9C",
">X c #F6A49C",
",X c #F9ABA6",
"<X c #FCB2A7",
"1X c #FDB7AD",
"2X c #FABCB4",
"3X c #A6C996",
"4X c #BAD9B1",
"5X c #FDC689",
"6X c #FDC5A8",
"7X c #FEC3B0",
"8X c #9090FF",
"9X c #D2DCC4",
"0X c #FAC8C5",
/* pixels */
"`.`.`.`.`.`.`.`.`.`.`.`.`.`.`.`.`.`.'.].!.I.].`.`.`.`.`.'.`.",
"`.`.`.`.`.`.`.`.`.`.`.`.`.`.`.`.`.'.W.W.L.D.S.F.+X`.`.`.`.`.",
"`.`.`.`.`.`.`.`.`.`.`.`.].[.`.`.[.P.H.K.Y.K.F.D.D.[.`.`.`.`.",
"`.`.`.`.`.`.'.`.`.`.`.`.`.`.`.XX~.J.Y.E.W.T.U.G.G.R.`.'.`.`.",
"`.`.`.`.`.`.`.`.[.[.[.`.'.X 9X8X'.`.`.XX4XQ.E.Y.Y.H.'.`.`.`.",
"`.`.`.`.`.`.`.].,X,X*X*Xp.,.f.2.k.d.%X&X>X'.'.`.!.Y.J.XX`.`.",
"`.`.`.`.`.`.%X;X:X7X0X1X-X-X:X-Xz.y.V h j K b.[.OX].3X.X`.`.",
"`.`.`.'.].i.k.).6X5X/.V.A.N.X.2.o.[ V Q L 5.6.x.{.`.].'.`.`.",
"`.`.`.].[.;.l.l.7X2X7X1X<X$XN.M.y.V V O.&.! 7.q.8.`.`.`.`.`.",
"`.`.`.].+.-.d.7X<X>X,X,X=X(.V.j.#.k j V U O.! 7.q.[.'.`.`.`.",
"`.`.`.[.] :.#X,X>X:X=X=XC.m.h. ._ p 5 x B K $.&.@X@X].`.`.`.",
"`.`.`.oX{ >.$X%X(.#X#XV.m.g.X.p p t 5 x N K K Q n.x.`.`.`.`.",
"`.`.'.u.[ %.Z.Z.Z.Z.B.g.a.=.p s y % q q N P Z W p.c.'.`.`.`.",
"`.`.`.7.l X.g.Z.m.B.h.a.@.O.y t d % & + e N A Q c.b.[.`.`.].",
"`.`.'.~ k _ { } [ | #.#.l t # & & = 0 4 e W A G b.x.'.`.`.`.",
"`.`.[.3.y s ] ` s p p ' y = o @ 1 : + 4 0 L A Q b.7.'.`.`.`.",
"`.`..X5.j t s a a s ' g i < o - + b : w 7 w A ( b.8.'.`.`.`.",
"`.`.].r.h % y p s s ..g f o o - O ; > n w w P e.u.{.].`.`.`.",
"`.`.`.'.6 5 t s # i g f < < - o O ; v 7 7 A 5.t.<.'.`.`.`.`.",
"`.`.`.].4.% z u $ < f 3 < - - O ; . v n 8 ( w.&.5.`.'.`.`.`.",
"`.`.`.'.[.q * d $ 3 r f < : 2 , , v m S A 1.*.<.].'.[.`.`.`.",
"`.`.`.`.}.1.q u u I Z M < 2 : ,   n F M E *.1.( `.`.`.`.`.`.",
"`.`.`.`.`.].L h t C P P 1 + O .   M L P $.1.t..X`.].`.`.`.`.",
"`.`.`.`.`.`..X6 t C Y N z + : ; . F P R 1.1.9.`.`.'.`.`.`.`.",
"`.`.`.`.`.`.|.w.( @.U T R o < . v ~ P ) <.L XX`.`.`.`.`.`.`.",
"`.`.`.`.`.`.`.[.i.$.O.+.$.H r : M A Y Y i.r.`.'.`.`.`.`.`.`.",
"`.`.`.`.`.`.].`.].1.O.O.$.R H H J P S G t._.`.'.`.`.`.`.`.`.",
"`.`.`.`.`.`.`.`.`.`.'.`.`.'.`.`.`.`.`.`.].`.].`.`.`.`.`.`.`.",
"`.`.`.`.`.`.`.`.`.`.`.`.'.`.`.`.`.`.'.'.`.`.`.`.`.`.`.`.`.`.",
"`.`.`.`.`.`.`.`.`.`.`.`.`.`.`.`.`.`.`.`.`.`.`.`.`.`.`.'.`.`."
};
