/* XPM */
static char *result[] = {
/* columns rows colors chars-per-pixel */
"30 30 41 1 ",
"  c gray1",
". c #010101",
"X c white",
"o c gray17",
"O c #070707",
"+ c #A9A9A9",
"@ c #FEFEFE",
"# c #FDFDFD",
"$ c #494949",
"% c #181818",
"& c gray11",
"* c gray30",
"= c gray92",
"- c #A5A5A5",
"; c gray99",
": c #979797",
"> c #565656",
", c gray13",
"< c #020202",
"1 c #191919",
"2 c gray2",
"3 c #5F5F5F",
"4 c gray54",
"5 c gray68",
"6 c #ACACAC",
"7 c gray94",
"8 c #0E0E0E",
"9 c #131313",
"0 c #909090",
"q c #929292",
"w c gray66",
"e c gray76",
"r c #282828",
"t c gray85",
"y c #AAAAAA",
"u c #444444",
"i c #C6C6C6",
"p c #CBCBCB",
"a c gray22",
"s c gray38",
"d c gray89",
/* pixels */
" .............................",
"..............................",
"...XXXXXXXXXXXXXXXXXXXXXXXXo..",
"...XXXXXXXXXXXXXXXXXXXXXXXXo..",
"...XXXXXXXXXXXXXXXXXXXXXXXXo..",
"...XXXXXXXXXXXXXXX....OXXXXo..",
"...XXXXXXXXXXXXXX.......XXXo..",
"...XXXXXXXXXXXXX+.......XXXo..",
"...XXXXXXXXXXXXX@.......XXXo..",
"...XXXXXXXXXXXXXXX.....#XXXo..",
"...XXXXX$%%%%%%%&*#X=XXXXXXo..",
"...XXXX-............XXXXXXXo..",
"...XXX;..............:XXXXXo..",
"...XXX...>XX,..........XXXXo..",
"...XX-.. XXX.......<....XXXo..",
"...X;...XXX1.......XX2........",
"...X3.. XX4.......5XXX .......",
"...XXXXXXX........XXXXXXXXXo..",
"...XXXXXX6.......7XXXXXXXXXo..",
"...XXXXXX8......9XXXXXXXXXXo..",
"...XXXXXX........0XXXXXXXXXo..",
"...XXXXXq....w....XXXXXXXXXo..",
"XXXXXXXX<...eX....rXXXXXXXXo..",
"4...........XXX....5XXXXXXXo..",
"...........tXXXX....XXXXXXXo..",
"yyyyyyyyyyXXXXXXt...uXXXXXXo..",
"XXXXXXXXXXXXXXXXXi...pXXXXXo..",
"...XXXXXXXXXXXXXXX....XXXXXo..",
"...XXXXXXXXXXXXXXXXa..sXXXXo..",
"...XXXXXXXXXXXXXXXXX...dXXXo.."
};
