/* XPM */
static char *result[] = {
/* columns rows colors chars-per-pixel */
"30 30 156 2 ",
"   c blue",
".  c gray47",
"X  c gainsboro",
"o  c #CECECE",
"O  c gray49",
"+  c #4E4E4E",
"@  c gray19",
"#  c #2A2A2A",
"$  c gray48",
"%  c white",
"&  c #8080FF",
"*  c gray85",
"=  c #6F6F6F",
"-  c #848484",
";  c #A2A2A2",
":  c #585858",
">  c #2F2F2F",
",  c #202020",
"<  c gray23",
"1  c gray52",
"2  c #797979",
"3  c #252525",
"4  c #161616",
"5  c #1B1B1B",
"6  c gray9",
"7  c #494949",
"8  c #232323",
"9  c #4B4B4B",
"0  c #464646",
"q  c gray12",
"w  c #151515",
"e  c #191919",
"r  c #E4E4E4",
"t  c #565656",
"y  c #2D2D2D",
"u  c #282828",
"i  c gray11",
"p  c gray37",
"a  c #989898",
"s  c #AAAAAA",
"d  c #1D1D1D",
"f  c #3A3A3A",
"g  c gray84",
"h  c #E6E6E6",
"j  c #CDCDCD",
"k  c #DDDDDD",
"l  c gray16",
"z  c #181818",
"x  c gray8",
"c  c #111111",
"v  c #131313",
"b  c gray7",
"n  c #CACACA",
"m  c #626262",
"M  c #E2E2E2",
"N  c gray60",
"B  c #D7D7D7",
"V  c #99613A",
"C  c #9F9F9F",
"Z  c #F37831",
"A  c #525051",
"S  c gray38",
"D  c #353535",
"F  c #101010",
"G  c gray61",
"H  c #777777",
"J  c #EAEAEA",
"K  c gray25",
"L  c gray18",
"P  c #EEEEEE",
"I  c #E1E1E1",
"U  c gray22",
"Y  c #959595",
"T  c #C3C3C3",
"R  c gray59",
"E  c #7C7C7C",
"W  c #A7A7A7",
"Q  c #DFDFDF",
"!  c #3C3C3C",
"~  c gray10",
"^  c #939393",
"/  c #686868",
"(  c #515151",
")  c #898989",
"_  c #F6F6F6",
"`  c gray27",
"'  c gray14",
"]  c #6C6C6C",
"[  c #909090",
"{  c #535353",
"}  c gray6",
"|  c #2C2CFB",
" . c gray74",
".. c #C6C6C6",
"X. c gray31",
"o. c gray43",
"O. c #C5C5C5",
"+. c #222222",
"@. c gray55",
"#. c gray40",
"$. c gray86",
"%. c #8E8EF0",
"&. c #505050",
"*. c #717171",
"=. c #555555",
"-. c gray29",
";. c #444444",
":. c #3E3E3E",
">. c gray53",
",. c gray88",
"<. c gray63",
"1. c gray24",
"2. c gray78",
"3. c #393939",
"4. c #2C2C2C",
"5. c gray13",
"6. c #343434",
"7. c gray45",
"8. c gray82",
"9. c #323232",
"0. c #1E1E1E",
"q. c #272727",
"w. c #484848",
"e. c #7E7E7E",
"r. c #7474F3",
"t. c #727272",
"y. c #DADADA",
"u. c #AFAFAF",
"i. c #A4A4A4",
"p. c #AEAEAE",
"a. c DimGray",
"s. c gray39",
"d. c #676767",
"f. c #5F5F5F",
"g. c gray72",
"h. c gray17",
"j. c #606060",
"k. c #8E8E8E",
"l. c #656565",
"z. c gray87",
"x. c gray34",
"c. c #646464",
"v. c #747474",
"b. c #6D6D6D",
"n. c gray26",
"m. c #A9A9A9",
"M. c #B2B2B2",
"N. c #F3F3F3",
"B. c #4C4C4C",
"V. c #313131",
"C. c #ACACAC",
"Z. c #FEFEFE",
"A. c #5D5D5D",
"S. c #C1C1C1",
"D. c gray70",
"F. c #9A9A9A",
/* pixels */
"                            .                               ",
"                      X o O + @ #                           ",
"      $ % & * = -     ; + : + > , <                         ",
"        1 - 2 3 4 5 6 7 8 9 0 q w e r t y u i p a           ",
"        e s # d 5 4 4 f g h j k l z x c v 4 , i b 2         ",
"        e n u 5 q m M N B V C Z A S 2 D w v F w G j         ",
"    H % J p K 6 v w L P I U D > Y T R x z v 8 c E Y         ",
"      W Q D ! ~ , ^ , / ( ) _ ` = ' ~ z z 6 5 6 ] [         ",
"        k { }   |      .~ 4 w b v D 3 # ..X.{ F > =         ",
"        o.:             O.+.z z 6 4 @.          e <         ",
"      #.6 $.            * x v x x w %.          7 c &.      ",
"    *.=.5             -.3 &.6 ;.:.4 =.-.          >.v X.    ",
"    ,.=.5 <.        1.2.u u ; 3.D 1.4.+.l         s 4 5     ",
"        S .       ' e z 8 8 d 5.6.' w v z         $.4 7.    ",
"        / z     8.9., v 0.' b 5.~ # q.w w.e.r.      d       ",
"        t.K     ~ z b v i ~ b 6 5 i x v x 9.q       e       ",
"        y.(     + q x   ` ~ % j u.7 i.x > e q U   n 9.      ",
"        p.a.s.d.f 5                   6 6 f.g.    h.j.      ",
"          d.j.6 z                       k.d /   l.0.u       ",
"        z.a.4 4 8                         e i x.c., 0.      ",
"        #.v.% L #                         z 5 y % 0.l b.    ",
"        { n.j m.S 6                       z > M.N.' B.      ",
"            V.K ..# C.                    4 6.Z.#.d         ",
"                  &.e                     6 l.              ",
"                  s.6                     3                 ",
"                    @                     j.                ",
"                  n t                   u A.                ",
"                  5 e                   G '                 ",
"                  4 u                     4                 ",
"                S.D.                      6 F.              "
};
