/* XPM */
static char *result[] = {
/* columns rows colors chars-per-pixel */
"30 30 83 1 ",
"  c #BF6541",
". c #C16A47",
"X c #BF6743",
"o c #B8623E",
"O c #B96643",
"+ c #B86340",
"@ c #B4603D",
"# c #B36240",
"$ c #B3603E",
"% c #AD5D3C",
"& c #AC5D3C",
"* c #AD5C3C",
"= c #9A5439",
"- c #975438",
"; c #9E593F",
": c #C77655",
"> c #956D5D",
", c #55504E",
"< c #C77756",
"1 c #B8623F",
"2 c #906351",
"3 c #56514E",
"4 c #B96340",
"5 c #B25F3C",
"6 c #885C48",
"7 c #534E4B",
"8 c #B25F3D",
"9 c #AE5D3C",
"0 c #835745",
"q c #524C4A",
"w c #A85A3A",
"e c #7C503E",
"r c #504A47",
"t c #A6593A",
"y c #BF6642",
"u c #C06845",
"i c #BA6542",
"p c #B96440",
"a c #B35E3D",
"s c #B3603F",
"d c #B2603D",
"f c #AC5C3B",
"g c #AB5C3B",
"h c #A95A3A",
"j c #A85A39",
"k c #C16743",
"l c #966A57",
"z c #544E4C",
"x c #C06944",
"c c #8E614F",
"v c #534D4A",
"b c #B4603E",
"n c #895C4A",
"m c #514B49",
"M c #AE5C3C",
"N c #815442",
"B c #4E4945",
"V c #A05638",
"C c #744D3D",
"Z c #4B4745",
"A c #A05739",
"S c #C17556",
"D c #C17759",
"F c #C47A5A",
"G c #B9633F",
"H c #B96542",
"J c #B1603F",
"K c #B25F3E",
"L c #AF5D3C",
"P c #A7593A",
"I c #A85939",
"U c #946855",
"Y c #514C49",
"T c #8F624F",
"R c #504A48",
"E c #B45F3E",
"W c #875947",
"Q c #4E4846",
"! c #7F5241",
"~ c #4B4642",
"^ c #AA5A3A",
"/ c #7B4F3D",
"( c #4B4542",
/* pixels */
"               .             X",
"oooooooooooooooOooooooooooooo+",
"@@@@@@@@@@@@@@@#@@@@@@@@@@@@@$",
"%%%%%%%%%%%%%%%&%%%%%%%%%%%%%*",
"===============-=============;",
":::::::>::::::::::::::,::::::<",
"111111121111111111111131111114",
"555555565555555555555575555558",
"9999999099999999999999q9999999",
"wwwwwwwewwwwwwwwwwwwwwrwwwwwwt",
"yyyyyyyyyyyyyyyuyyyyyyyyyyyyyy",
"444444444444444i4444444444444p",
"aaaaaaaaaaaaaaasaaaaaaaaaaaaad",
"fffffffffffffffgffffffffffffff",
"hhhhhhhhhhhhhhhjhhhhhhhhhhhhhh",
"kkkkkkklkkkkkkkkkkkkkkzkkkkkkx",
"1111111c11111111111111v111111+",
"bbbbbbbnbbbbbbbbbbbbbbmbbbbbbb",
"MMMMMMMNMMMMMMMMMMMMMMBMMMMMM*",
"VVVVVVVCVVVVVVVVVVVVVVZVVVVVVA",
"SSSSSSSSSSSSSSSDSSSSSSSSSSSSSF",
"GGGGGGGGGGGGGGGHGGGGGGGGGGGGGp",
"aaaaaaaaaaaaaaaJaaaaaaaaaaaaaK",
"LLLLLLLLLLLLLLL9LLLLLLLLLLLLLM",
"hhhhhhhhhhhhhhhPhhhhhhhhhhhhhI",
"       U              Y      X",
"GGGGGGGTGGGGGGGGGGGGGGRGGGGGGp",
"EEEEEEEWEEEEEEEEEEEEEEQEEEEEE$",
"fffffff!ffffffffffffff~fffffff",
"^^^^^^^/^^^^^^^^^^^^^^(^^^^^^w"
};
